<svg xmlns="http://www.w3.org/2000/svg" width="221" height="48" shape-rendering="geometricPrecision" text-rendering="geometricPrecision" image-rendering="optimizeQuality" fill-rule="evenodd" clip-rule="evenodd" viewBox="0 0 51774 11324"><path fill="#E31E24" d="M29861 5420h-2040V4315h5343v1105h-2040v413h-1264v-413zm-5349 413l1518-1518h1631l-1571 1518h-1579zM-1 9961V8361l370 262c384 272 812 490 1246 670 484 202 995 293 1519 293 950 0 1756-385 2450-1024 479-441 813-1045 998-1710h1460c-185 876-584 1674-1201 2387-957 1107-2251 1545-3694 1545-485 0-970-59-1445-157-554-115-1084-330-1581-600l-123-67zm6748-4128c61-1186-315-2400-1152-3141-712-630-1535-955-2487-955h-202c-451 25-889 121-1313 277-441 163-846 398-1213 692L-1 3011V1400l109-69c196-125 402-236 616-329 198-85 400-162 605-227 295-92 597-157 903-195 304-37 610-54 916-54 1449 0 2794 408 3743 1548 862 1036 1273 2241 1273 3587 0 57-1 114-2 171H6748zm15781 0V4315h1264v1518h-1264zm-6829 0c182-366 427-698 717-997 558-575 1330-760 2108-760 719 0 1415 182 1925 714 297 310 536 657 699 1042h-1350c-35-50-71-100-111-148-296-361-689-503-1149-503-471 0-882 142-1219 475-57 57-110 115-159 176h-1461zm-2746-413h-1994v413H9695V4315h4522v1518h-1264v-413z"/><path fill="#233B77" d="M10959 6852v1764c0 490-136 943-441 1330-380 483-1058 586-1635 586h-302V9409l239 4c226 4 600-16 709-259 135-300 164-692 164-1016V6851h1264zm20166 0v3680h-1264V6852h1264zm-6088 0l-391 378 3217 3302h-1677l-2393-2521v2521h-1264V6852h2508zm-8375 873c1 15 3 30 4 44 9 81 17 162 26 243 86 436 295 817 587 1151 324 371 763 503 1247 503 163 0 330-22 490-50 195-34 381-130 542-239 151-107 286-240 408-379 158-181 285-401 390-617l103-214 1030 515-103 209c-249 508-603 940-1043 1297-518 421-1161 569-1817 569-935 0-1760-300-2360-1033-547-668-828-1437-828-2301 0-157 10-314 28-470 4-34 8-68 13-101h6021c6 85 10 169 10 254v619h-4747zm-2445-873v3680h-1264V6852h1264z"/><path fill="#E31E24" d="M3275 5167c542 0 996 384 1117 900h29614V791h1370v6917L41707 0v10532h-1370V3615l-6331 7709V6617H4392c-121 516-575 900-1117 900-634 0-1149-526-1149-1175s514-1175 1149-1175zm48498 2734v1693l-94 70c-104 78-213 152-320 225-170 115-356 213-540 302-355 171-739 300-1118 406-498 138-1024 187-1540 187-1440 0-2721-446-3680-1544-893-1023-1336-2221-1336-3578 0-1455 437-2765 1527-3756 989-899 2150-1379 3489-1379 545 0 1093 82 1623 205 689 160 1334 534 1896 955l94 70v1722l-399-391c-416-407-891-735-1418-982-556-260-1156-369-1768-369-1032 0-1896 353-2562 1148-623 743-1008 1591-1058 2563-1 33 1 67 1 101v112c0 1024 347 1924 988 2720 671 833 1554 1204 2618 1204 603 0 1182-120 1735-358 543-234 1038-550 1469-955l395-372z"/><path fill="#233B77" fill-rule="nonzero" d="M10485 1938h-127v-658l-622 718v-975h127v665l622-718v969zm1184 0h-127v-418h-515v418h-127v-916h127v397h515v-397h127v916zm1562 0h-162l-414-477v477h-127v-477l-414 477h-162l443-490-414-426h156l390 416v-416h127v416l390-416h156l-414 426 443 490zm1117-241c-42 86-94 151-156 196-75 55-163 82-266 82-146 0-263-51-350-154-80-94-120-208-120-342 0-138 40-253 120-346 86-100 203-150 350-150 142 0 252 52 329 156 62 83 93 179 93 289v61h-758c0 100 28 186 82 259 62 83 146 125 253 125 59 0 110-10 152-32 70-35 128-100 173-194l97 48zm-127-308c0-79-25-148-76-207-56-65-129-97-217-97-86 0-159 28-218 83-60 56-96 129-109 220h621zm1252 549h-127v-418h-515v418h-127v-916h127v397h515v-397h127v916zm1250-241c-42 86-94 151-156 196-75 55-163 82-266 82-146 0-263-51-350-154-80-94-120-208-120-342 0-138 40-253 120-346 86-100 203-150 350-150 142 0 252 52 329 156 62 83 93 179 93 289v61h-758c0 100 27 186 82 259 62 83 146 125 253 125 59 0 110-10 152-32 70-35 128-100 173-194l97 48zm-127-308c0-79-25-148-76-207-56-65-129-97-217-97-86 0-159 28-218 83-60 56-96 129-109 220h621zm1416 91c0 143-43 262-128 356-85 93-199 140-341 140-86 0-161-21-224-63-42-28-80-67-114-116v585h-127V1023h118v162c32-61 73-107 122-139 62-41 135-61 220-61 141 0 254 46 342 137 87 91 131 211 131 359zm-135 0c0-104-27-193-80-266-63-86-153-129-270-129-97 0-176 38-238 114-61 76-92 169-92 281 0 122 35 220 106 293 65 68 145 101 241 101 103 0 184-37 244-112s90-169 90-283zm1260 458h-127v-418h-515v418h-127v-916h127v397h515v-397h127v916zm1353-458c0 142-46 260-139 354s-212 141-359 141c-145 0-264-47-358-140-93-94-140-212-140-356 0-142 46-260 139-354s212-141 359-141c146 0 266 47 359 141s139 212 139 354zm-135 0c0-117-35-212-106-285-70-73-156-110-258-110-101 0-187 37-258 110-70 73-106 168-106 285s35 212 106 285c70 73 156 110 258 110 101 0 187-36 258-110 70-73 106-168 106-285zm897-23h-473v-127h473v127zM10483 3508c-49 30-97 51-143 63-46 13-93 19-139 19-152 0-278-46-377-138s-149-211-149-358c0-146 49-266 147-358s223-138 377-138c69 0 130 9 182 25 35 11 70 29 103 53v124c-55-39-104-66-149-80-44-14-87-21-128-21-122 0-219 38-290 113s-106 169-106 282c0 118 37 214 111 286s165 109 273 109c58 0 111-10 158-30 48-20 91-48 131-83v133zm963-770h-325v815h-127v-815h-325v-101h777v101zm1216 357c0 143-43 262-128 356s-199 140-341 140c-86 0-160-21-224-63-42-28-80-67-114-116v584h-127V2637h118v162c32-61 73-107 122-139 62-41 135-61 219-61 141 0 254 46 342 137 87 91 131 211 131 359zm-135 0c0-104-27-193-80-266-63-86-153-129-270-129-97 0-176 38-237 114s-92 170-92 281c0 122 35 220 105 293 65 67 145 101 241 101 103 0 184-37 244-112 60-74 90-169 90-283zm1429 0c0 142-46 260-139 354s-212 141-359 141c-145 0-264-47-358-140-93-94-140-212-140-356 0-142 46-260 139-354s212-141 359-141c146 0 266 47 359 141s139 212 139 354zm-135 0c0-117-35-212-106-285-70-73-156-110-258-110-101 0-187 36-258 110-70 73-106 168-106 285s35 212 106 285c70 73 156 110 258 110 101 0 187-36 258-110 70-73 106-168 106-285zm1241 458h-127v-658l-622 718v-975h127v665l622-718v968zm1060-815h-325v815h-127v-815h-325v-101h777v101zm1117 574c-42 86-94 151-156 196-75 55-163 82-266 82-146 0-263-51-350-154-80-94-120-208-120-342 0-138 40-253 120-346 86-100 203-150 350-150 142 0 252 52 329 156 62 83 93 180 93 289v61h-758c0 100 27 186 82 260 62 83 146 124 253 124 59 0 110-10 152-31 70-35 128-100 173-194l97 49zm-127-308c0-79-25-148-76-207-56-65-129-97-217-97-86 0-159 28-218 83-60 56-96 129-109 221h621zm1174 548h-127v-815h-393v547c0 80-20 142-59 186-51 55-132 82-245 82v-103c75 0 125-22 150-65 18-32 27-91 27-175v-572h646v916zm1073-272c0 107-40 182-118 226-56 31-134 46-232 46h-306v-916h127v371h181c91 0 165 14 220 42 86 43 129 120 129 230zm-135 0c0-72-29-121-86-148-32-16-77-23-135-23h-173v342h171c61 0 106-7 137-21 57-25 86-75 86-150zm1237 272h-127v-418h-515v418h-127v-916h127v397h515v-397h127v916zm1290 0h-118v-156c-35 62-83 110-145 144-61 34-126 51-193 51-144 0-259-47-346-141s-131-212-131-354c0-143 44-262 134-356 89-94 204-140 345-140 65 0 122 12 171 36 69 34 124 89 165 165v-162h118v916zm-118-458c0-111-31-205-92-281s-142-114-242-114-183 37-248 111-98 169-98 284c0 111 31 205 94 281s145 114 248 114c98 0 179-36 243-107 63-72 95-167 95-287zm1125 458h-127v-384h-177l-243 384h-141l266-395c-65-7-117-30-158-70-48-46-72-108-72-186 0-75 22-134 65-179 56-58 142-86 258-86h329v916zm-127-485v-329h-183c-55 0-99 9-133 25-55 27-82 73-82 139s27 112 80 139c34 17 79 25 135 25h183zm2007 485h-162l-435-458v458h-127v-916h127v409l409-409h152l-441 426 477 490zm1220-458c0 142-46 260-139 354s-212 141-359 141c-145 0-264-47-358-140-94-94-140-212-140-356 0-142 46-260 139-354s212-141 359-141c146 0 266 47 359 141s139 212 139 354zm-135 0c0-117-35-212-106-285-70-73-156-110-258-110-101 0-187 36-258 110-70 73-106 168-106 285s35 212 106 285c70 73 156 110 258 110 101 0 187-36 258-110 70-73 106-168 106-285zm1562 458h-127l-131-650-333 709-333-709-131 650h-127l217-983 374 806 374-806 217 983zm1043 0h-127v-815h-485v815h-127v-916h739v916zm1290 0h-118v-156c-35 62-83 110-145 144-61 34-126 51-193 51-144 0-259-47-346-141s-131-212-131-354c0-143 44-262 134-356 89-94 204-140 345-140 65 0 122 12 171 36 69 34 124 89 165 165v-162h118v916zm-118-458c0-111-31-205-92-281s-142-114-242-114-183 37-248 111-98 169-98 284c0 111 31 205 94 281s145 114 248 114c98 0 179-36 243-107 63-72 95-167 95-287zm1302 458h-127v-418h-515v418h-127v-916h127v397h515v-397h127v916zm1165 0h-127v-658l-622 718v-975h127v665l623-718v968zm1007 0h-127v-384h-177l-243 384h-141l266-395c-65-7-117-30-158-70-48-46-72-108-72-186 0-75 22-134 65-179 56-58 142-86 258-86h329v916zm-127-485v-329h-183c-55 0-99 9-133 25-55 27-82 73-82 139s27 112 80 139c34 17 79 25 135 25h183z"/></svg>