<svg width="200" height="63" viewBox="0 0 200 63" fill="none" xmlns="http://www.w3.org/2000/svg">
<path d="M29.1644 16.436C25.0997 24.8569 25.7973 33.2807 29.1644 41.7045C32.5315 33.1454 33.229 24.6957 29.1644 16.436" fill="#FFDD00"/>
<path d="M29.1644 0C22.1287 11.0695 20.8715 21.0566 23.5496 31.7691C23.01 23.8779 24.6404 16.7065 29.1644 10.1742C33.961 16.4963 35.4795 23.8232 34.7963 31.9073C37.4544 21.2293 36.0823 11.2567 29.1644 0Z" fill="#E4032E"/>
<path d="M58.2312 28.9102C58.2312 15.2295 48.8418 3.74252 36.1771 0.575684V3.33083C46.8267 6.45448 54.6086 16.3235 54.6086 28.0149C54.6086 41.4278 44.3609 52.4398 31.2972 53.623V50.9312H37.3712V46.4545H20.8657V50.9312H26.9397V53.6461C13.7268 52.6097 3.32692 41.5315 3.32692 28.0149C3.32692 16.6977 10.618 7.08497 20.7452 3.65039V0.941309C8.74932 4.54574 0 15.7074 0 28.9102C0 44.301 11.8782 56.905 26.9397 58.0221V62.3664H31.2943V58.0221C46.353 56.9022 58.2312 44.301 58.2312 28.9102M77.6617 28.4841H80.1676V26.4631H72.5723V28.4841H75.0782V36.6488H77.6617V28.4841ZM87.8003 30.413L83.5405 31.0003C83.5778 29.0916 84.5193 28.107 85.857 28.107C87.0454 28.107 87.7975 28.8814 87.7975 30.413M90.2489 31.7373C90.2862 31.435 90.2862 31.15 90.2862 30.8679C90.2862 28.0897 88.7218 26.2386 85.9144 26.2386C82.9549 26.2386 81.2039 28.4294 81.2039 31.5502C81.2039 34.671 82.975 36.8791 86.3306 36.8791C87.8003 36.8791 89.2327 36.5768 90.0795 36.1421L89.3447 34.2132C88.627 34.5904 87.5362 34.8552 86.5172 34.8552C85.0274 34.8552 83.9366 34.1182 83.7099 32.624L90.2489 31.7373V31.7373ZM98.0882 36.6517H100.652V26.4631H92.2267V36.6517H94.79V28.4669H98.0882V36.6517ZM109.998 36.6517H112.579L111.505 26.4631H104.966L104.421 30.3957C104.157 32.3419 103.571 34.2506 101.969 34.9128L102.799 36.9741C105.721 36.1047 106.568 33.1941 106.927 30.6433L107.228 28.4697H109.168L109.998 36.6546V36.6517ZM120.739 31.53C120.739 33.5712 120.062 34.7804 118.704 34.7804C117.347 34.7804 116.669 33.5712 116.669 31.53C116.669 29.4889 117.347 28.2596 118.704 28.2596C120.062 28.2596 120.739 29.4889 120.739 31.53ZM123.303 31.5473C123.303 28.5043 121.664 26.2357 118.704 26.2357C115.745 26.2357 114.106 28.5043 114.106 31.5473C114.106 34.5904 115.745 36.8762 118.704 36.8762C121.664 36.8762 123.303 34.5904 123.303 31.5473M127.844 28.4669H131.274V26.4631H125.263V36.6517H127.844V28.4669ZM138.209 34.8351C137.945 34.9474 137.305 35.0424 136.76 35.0424C135.422 35.0424 134.667 34.4954 134.667 33.5309C134.667 31.9993 136.326 31.8295 138.209 31.7373V34.838V34.8351ZM136.834 36.8762C138.362 36.8762 139.889 36.5365 140.641 36.1392V29.8631C140.641 27.2548 139.191 26.2357 136.59 26.2357C135.121 26.2357 133.668 26.6128 132.821 26.9727L133.462 28.7116C134.176 28.4093 135.347 28.107 136.306 28.107C137.475 28.107 138.209 28.5043 138.209 29.5637V30.0935C135.138 30.2633 132.256 30.8132 132.256 33.5914C132.256 35.67 133.783 36.8791 136.834 36.8791M148.216 31.3228V31.2853C149.269 30.9456 150.024 30.1136 150.024 29.0542C150.024 27.3729 148.649 26.2386 146.011 26.2386C144.711 26.2386 143.316 26.5207 142.317 26.9756L143.015 28.6569C143.729 28.3172 144.711 28.1099 145.558 28.1099C146.631 28.1099 147.404 28.5647 147.404 29.3392C147.404 30.1136 146.706 30.6606 145.179 30.6606H144.028V32.2296H145.234C146.967 32.2296 147.702 32.8141 147.702 33.6288C147.702 34.4982 146.778 34.9704 145.555 34.9704C144.593 34.9704 143.557 34.7429 142.86 34.4234L142.067 36.1421C143.066 36.5941 144.499 36.8791 145.856 36.8791C148.532 36.8791 150.36 35.7822 150.36 33.8562C150.36 32.4945 149.361 31.6826 148.213 31.3228M154.563 31.53C154.563 29.414 155.562 28.3546 156.825 28.3546C157.407 28.3546 157.956 28.5043 158.332 28.7893L159.141 26.9381C158.501 26.5034 157.651 26.2386 156.446 26.2386C154.072 26.2386 151.905 27.9199 151.905 31.5502C151.905 35.1805 154.072 36.8791 156.446 36.8791C157.651 36.8791 158.481 36.6143 159.141 36.1795L158.332 34.2506C157.956 34.5328 157.407 34.7055 156.825 34.7055C155.599 34.7055 154.563 33.6461 154.563 31.53M165.341 28.487H167.847V26.466H160.252V28.487H162.758V36.6517H165.339V28.487H165.341ZM175.724 31.5128C175.724 33.4417 174.895 34.8005 173.293 34.8005C172.839 34.8005 172.294 34.7055 172.087 34.6105V28.4496C172.314 28.3373 172.802 28.2423 173.276 28.2423C174.857 28.2423 175.727 29.4515 175.727 31.5128M178.308 31.5128C178.308 28.2049 176.516 26.2386 173.238 26.2386C171.711 26.2386 170.279 26.5783 169.527 26.9756V40.7167H172.09V36.5394C172.412 36.6517 173.014 36.7668 173.56 36.7668C176.668 36.7668 178.31 34.6508 178.31 31.5128M186.526 31.5329C186.526 33.5741 185.848 34.7833 184.491 34.7833C183.133 34.7833 182.455 33.5741 182.455 31.5329C182.455 29.4918 183.133 28.2625 184.491 28.2625C185.848 28.2625 186.526 29.4918 186.526 31.5329ZM189.089 31.5502C189.089 28.5072 187.45 26.2386 184.491 26.2386C181.531 26.2386 179.892 28.5072 179.892 31.5502C179.892 34.5932 181.531 36.8791 184.491 36.8791C187.45 36.8791 189.089 34.5932 189.089 31.5502M198.286 22.5535L196.834 22.3261C196.722 23.3481 196.343 23.8951 195.476 23.8951C194.609 23.8951 194.213 23.3481 194.101 22.3261L192.652 22.5535C192.746 24.2924 193.708 25.4267 195.479 25.4267C197.25 25.4267 198.194 24.2924 198.286 22.5535M200 36.6546V26.466H197.457L193.915 32.2498C193.576 32.7968 193.292 33.4589 193.292 33.4589H193.254C193.254 33.4589 193.292 32.7219 193.292 32.0598V26.466H191.03V36.6546H193.481L197.118 30.7009C197.457 30.1338 197.738 29.4918 197.738 29.4918H197.775C197.775 29.4918 197.738 30.2115 197.738 30.8535V36.6546H200V36.6546Z" fill="black"/>
</svg>
