<?xml version="1.0" standalone="no"?>
<!DOCTYPE svg PUBLIC "-//W3C//DTD SVG 20010904//EN"
 "http://www.w3.org/TR/2001/REC-SVG-20010904/DTD/svg10.dtd">
<svg version="1.0" xmlns="http://www.w3.org/2000/svg"
 width="100.000000pt" height="100.000000pt" viewBox="0 0 100.000000 100.000000"
 preserveAspectRatio="xMidYMid meet">

<g transform="translate(0.000000,100.000000) scale(0.100000,-0.100000)"
fill="#000000" stroke="none">
<path d="M352 647 l-203 -204 3 -44 c2 -37 7 -45 26 -47 28 -4 28 -13 -3 -42
-19 -18 -25 -34 -25 -67 0 -24 1 -43 3 -43 2 0 60 -11 128 -25 68 -14 133 -25
144 -25 13 0 93 73 223 203 l203 204 -3 44 c-2 37 -7 45 -25 47 -29 4 -29 13
2 42 19 18 25 34 25 65 l0 42 -132 27 c-73 14 -140 26 -148 26 -8 0 -107 -91
-218 -203z m155 103 c-83 -86 -187 -221 -218 -282 -14 -28 -26 -38 -43 -38
-68 0 -63 8 135 206 200 201 258 253 126 114z m123 64 c0 -3 -26 -34 -57 -69
-75 -81 -121 -159 -155 -260 l-28 -80 -37 3 c-67 6 -68 11 -15 93 109 167 292
363 292 313z m63 -11 c4 -3 -17 -32 -47 -63 -61 -64 -99 -132 -115 -208 -11
-52 -53 -112 -95 -134 -17 -9 -18 -7 -11 28 18 98 89 224 183 326 51 55 70 66
85 51z m106 -22 c11 -7 -14 -38 -109 -135 -69 -69 -128 -126 -133 -126 -4 0
-5 10 -2 23 19 63 58 129 109 185 48 51 64 62 90 62 17 0 37 -4 45 -9z m-155
-242 c-104 -104 -191 -184 -193 -178 -2 6 81 96 185 200 104 104 191 184 193
178 2 -6 -81 -96 -185 -200z m166 83 c0 -4 -38 -45 -85 -92 -47 -47 -85 -81
-85 -77 0 20 45 93 82 133 26 28 49 44 64 44 13 0 24 -3 24 -8z m-166 -244
c-131 -130 -190 -183 -193 -172 -2 11 64 83 185 206 131 130 190 183 193 172
2 -11 -64 -83 -185 -206z m-28 70 c-5 -23 -32 -59 -94 -120 -86 -87 -112 -104
-112 -72 0 14 195 224 208 224 3 0 2 -15 -2 -32z m-302 -58 c54 -11 100 -20
102 -20 2 0 4 -9 4 -20 0 -25 -7 -25 -140 4 -93 20 -105 25 -108 45 -3 18 0
21 20 16 13 -3 67 -14 122 -25z m-46 -58 c9 -7 10 -15 3 -35 -9 -23 -14 -26
-43 -20 -44 8 -45 9 -18 38 25 26 37 30 58 17z m129 -26 c2 -2 1 -16 -3 -31
-6 -26 -9 -27 -53 -20 -25 4 -48 8 -50 10 -2 2 0 16 3 31 7 25 9 26 53 20 26
-3 48 -8 50 -10z m-87 -69 c94 -20 105 -24 108 -45 3 -19 0 -22 -20 -17 -30 7
-219 45 -224 45 -2 0 -4 9 -4 20 0 25 7 25 140 -3z"/>
</g>
</svg>
