<!DOCTYPE svg PUBLIC "-//W3C//DTD SVG 1.1//EN" "http://www.w3.org/Graphics/SVG/1.1/DTD/svg11.dtd">
<!-- Uploaded to: SVG Repo, www.svgrepo.com, Transformed by: SVG Repo Mixer Tools -->
<svg fill="#257722" height="800px" width="800px" version="1.1" id="Layer_1" xmlns="http://www.w3.org/2000/svg" xmlns:xlink="http://www.w3.org/1999/xlink" viewBox="0 0 512 512" xml:space="preserve">
<g id="SVGRepo_bgCarrier" stroke-width="0"/>
<g id="SVGRepo_tracerCarrier" stroke-linecap="round" stroke-linejoin="round"/>
<g id="SVGRepo_iconCarrier"> <g> <g> <path d="M503.83,408.511H370.383v-49.021H503.83c2.917,0,5.612-1.556,7.073-4.081c1.46-2.525,1.463-5.637,0.008-8.166 l-56.306-97.82h13.821c2.917,0,5.612-1.556,7.073-4.081c1.46-2.525,1.463-5.637,0.008-8.166l-56.306-97.82h13.821 c2.917,0,5.612-1.556,7.073-4.081c1.46-2.525,1.463-5.637,0.008-8.166L369.294,4.094C367.836,1.561,365.136,0,362.213,0 s-5.623,1.561-7.081,4.094l-70.808,123.015c-1.455,2.528-1.452,5.641,0.008,8.166c1.46,2.525,4.156,4.081,7.073,4.081h13.821 l-38.171,66.316c-2.251,3.911-0.906,8.906,3.004,11.156c3.909,2.25,8.906,0.905,11.157-3.004l45.221-78.563 c1.455-2.527,1.452-5.64-0.008-8.166c-1.46-2.525-4.156-4.081-7.073-4.081h-13.821l56.678-98.467l56.678,98.467H405.07 c-2.917,0-5.612,1.556-7.073,4.081c-1.46,2.525-1.463,5.637-0.008,8.166l56.306,97.821h-13.821c-2.917,0-5.612,1.556-7.073,4.081 c-1.46,2.525-1.463,5.637-0.008,8.166l56.306,97.82H327.673c-4.512,0-8.17,3.658-8.17,8.17s3.658,8.17,8.17,8.17h26.369v49.021 H157.957v-49.021h133.447c2.917,0,5.612-1.556,7.073-4.081c1.46-2.525,1.463-5.637,0.008-8.166l-56.306-97.82H256 c4.534,0,8.192-3.658,8.192-8.17c0-1.687-0.512-3.256-1.388-4.558l-56.029-97.339h13.821c4.534,0,8.192-3.658,8.192-8.17 c0-1.687-0.512-3.256-1.388-4.558L156.868,4.094C155.411,1.561,152.71,0,149.787,0c-2.923,0-5.623,1.561-7.081,4.094 L71.898,127.11c-1.455,2.528-1.452,5.641,0.008,8.166c1.46,2.525,4.156,4.081,7.073,4.081h13.821l-56.306,97.82 c-1.455,2.528-1.452,5.641,0.008,8.166c1.46,2.525,4.156,4.081,7.073,4.081h13.821L1.089,347.243 c-1.455,2.528-1.452,5.641,0.008,8.166c1.461,2.525,4.156,4.081,7.073,4.081h133.447v49.021H8.17c-4.512,0-8.17,3.658-8.17,8.17 s3.658,8.17,8.17,8.17h495.66c4.512,0,8.17-3.658,8.17-8.17S508.342,408.511,503.83,408.511z M22.3,343.149l56.306-97.82 c1.455-2.528,1.452-5.641-0.008-8.166c-1.46-2.525-4.156-4.081-7.073-4.081H57.705l56.306-97.821 c1.455-2.527,1.452-5.64-0.008-8.166c-1.46-2.525-4.156-4.081-7.073-4.081H93.109l56.678-98.467l56.678,98.467h-13.821 c-2.917,0-5.612,1.556-7.073,4.081c-1.46,2.525-1.463,5.637-0.008,8.166l56.306,97.821h-13.821c-2.917,0-5.612,1.556-7.073,4.081 c-1.46,2.525-1.463,5.637-0.008,8.166l56.306,97.82H22.3z"/> </g> </g> <g> <g> <path d="M40.851,441.191c-4.512,0-8.17,3.658-8.17,8.17v10.894c0,4.512,3.658,8.17,8.17,8.17s8.17-3.658,8.17-8.17v-10.894 C49.021,444.85,45.363,441.191,40.851,441.191z"/> </g> </g> <g> <g> <path d="M73.532,484.766c-4.512,0-8.17,3.658-8.17,8.17v10.894c0,4.512,3.658,8.17,8.17,8.17s8.17-3.658,8.17-8.17v-10.894 C81.702,488.424,78.044,484.766,73.532,484.766z"/> </g> </g> <g> <g> <path d="M106.213,462.979c-4.512,0-8.17,3.658-8.17,8.17v10.894c0,4.512,3.658,8.17,8.17,8.17s8.17-3.658,8.17-8.17v-10.894 C114.383,466.637,110.725,462.979,106.213,462.979z"/> </g> </g> <g> <g> <path d="M471.149,441.191c-4.512,0-8.17,3.658-8.17,8.17v10.894c0,4.512,3.658,8.17,8.17,8.17s8.17-3.658,8.17-8.17v-10.894 C479.319,444.85,475.661,441.191,471.149,441.191z"/> </g> </g> <g> <g> <path d="M318.638,484.766c-4.512,0-8.17,3.658-8.17,8.17v10.894c0,4.512,3.658,8.17,8.17,8.17s8.17-3.658,8.17-8.17v-10.894 C326.809,488.424,323.15,484.766,318.638,484.766z"/> </g> </g> <g> <g> <path d="M351.319,462.979c-4.512,0-8.17,3.658-8.17,8.17v10.894c0,4.512,3.658,8.17,8.17,8.17s8.17-3.658,8.17-8.17v-10.894 C359.489,466.637,355.831,462.979,351.319,462.979z"/> </g> </g> <g> <g> <path d="M198.809,462.979c-4.512,0-8.17,3.658-8.17,8.17v10.894c0,4.512,3.658,8.17,8.17,8.17s8.17-3.658,8.17-8.17v-10.894 C206.979,466.637,203.321,462.979,198.809,462.979z"/> </g> </g> <g> <g> <path d="M117.106,254.869c-4.512,0-8.17,3.658-8.17,8.17v10.894c0,4.512,3.658,8.17,8.17,8.17s8.17-3.658,8.17-8.17v-10.894 C125.277,258.527,121.619,254.869,117.106,254.869z"/> </g> </g> <g> <g> <path d="M149.787,222.188c-4.512,0-8.17,3.658-8.17,8.17v10.894c0,4.512,3.658,8.17,8.17,8.17s8.17-3.658,8.17-8.17v-10.894 C157.957,225.846,154.299,222.188,149.787,222.188z"/> </g> </g> <g> <g> <path d="M362.213,163.404c-4.512,0-8.17,3.658-8.17,8.17v10.894c0,4.512,3.658,8.17,8.17,8.17s8.17-3.658,8.17-8.17v-10.894 C370.383,167.062,366.725,163.404,362.213,163.404z"/> </g> </g> <g> <g> <path d="M394.894,272.34c-4.512,0-8.17,3.658-8.17,8.17v10.894c0,4.512,3.658,8.17,8.17,8.17s8.17-3.658,8.17-8.17v-10.894 C403.064,275.999,399.406,272.34,394.894,272.34z"/> </g> </g> </g>
</svg>