<?xml version="1.0" encoding="UTF-8"?>
<svg xmlns="http://www.w3.org/2000/svg" width="40" height="40" viewBox="0 0 1372.45 1354.74" style="shape-rendering:geometricPrecision; fill-rule:evenodd; clip-rule:evenodd">
  <path fill="#009919" d="M701.06 1354.74c-134.84,0 -197.48,-19.62 -306.07,-98.14 -69.11,88.34 -286.65,157.07 -296.23,39.26 0,-88.27 -19.93,-162.64 -41.91,-244.49 -26.92,-100.29 -56.85,-211.85 -56.85,-373.98 0,-386.58 319.11,-677.39 697.5,-677.39 378.3,0 674.95,304.95 674.95,681.16 0,376.16 -306.11,673.59 -671.41,673.59l0.02 -0.01zm5.46 -1020.49c-184.1,-9.58 -327.76,117.35 -359.44,316.04 -26.26,164.55 20.27,365.04 60.05,375.13 18.78,4.75 66.84,-33.88 96.43,-63.33 48.75,31.39 104.64,55.73 166.79,58.93 189.02,9.84 356.49,-137.14 366.41,-324.97 9.93,-187.84 -141.21,-351.95 -330.23,-361.8l-0.01 0z"/>
</svg>
